M48
; DRILL file {KiCad 9.0.8+1} date 2026-08-12T09:05:10-0400
; FORMAT={-:-/ absolute / metric / decimal}
; #@! TF.CreationDate,2026-08-12T09:05:10-04:00
; #@! TF.GenerationSoftware,Kicad,Pcbnew,9.0.8+1
; #@! TF.FileFunction,Plated,1,2,PTH
FMAT,2
METRIC
; #@! TA.AperFunction,Plated,PTH,ComponentDrill
T1C0.800
; #@! TA.AperFunction,Plated,PTH,ComponentDrill
T2C1.000
%
G90
G05
T1
X152.0Y-77.0
X152.0Y-83.0
X153.0Y-104.0
X156.5Y-104.0
X157.0Y-77.0
X157.0Y-83.0
T2
X108.37Y-62.23
X108.37Y-64.77
X110.91Y-62.23
X110.91Y-64.77
X113.45Y-62.23
X113.45Y-64.77
X115.99Y-62.23
X115.99Y-64.77
X118.53Y-62.23
X118.53Y-64.77
X121.07Y-62.23
X121.07Y-64.77
X123.61Y-62.23
X123.61Y-64.77
X126.15Y-62.23
X126.15Y-64.77
X128.69Y-62.23
X128.69Y-64.77
X131.23Y-62.23
X131.23Y-64.77
X133.77Y-62.23
X133.77Y-64.77
X136.31Y-62.23
X136.31Y-64.77
X138.85Y-62.23
X138.85Y-64.77
X141.39Y-62.23
X141.39Y-64.77
X143.93Y-62.23
X143.93Y-64.77
X146.47Y-62.23
X146.47Y-64.77
X149.01Y-62.23
X149.01Y-64.77
X151.55Y-62.23
X151.55Y-64.77
X154.09Y-62.23
X154.09Y-64.77
X156.63Y-62.23
X156.63Y-64.77
M30
