%TF.GenerationSoftware,KiCad,Pcbnew,9.0.8+1*%
%TF.CreationDate,2026-08-12T09:05:10-04:00*%
%TF.ProjectId,meshgw-hat-fab,6d657368-6777-42d6-9861-742d6661622e,rev?*%
%TF.SameCoordinates,Original*%
%TF.FileFunction,Drillmap*%
%TF.FilePolarity,Positive*%
%FSLAX45Y45*%
G04 Gerber Fmt 4.5, Leading zero omitted, Abs format (unit mm)*
G04 Created by KiCad (PCBNEW 9.0.8+1) date 2026-08-12 09:05:10*
%MOMM*%
%LPD*%
G01*
G04 APERTURE LIST*
%ADD10C,0.100000*%
%ADD11C,0.200000*%
G04 APERTURE END LIST*
D10*
X10000000Y-6300000D02*
X10002570Y-6260840D01*
X10000000Y-11300000D02*
X10000000Y-6300000D01*
X10002570Y-6260840D02*
X10010220Y-6222350D01*
X10002570Y-11339160D02*
X10000000Y-11300000D01*
X10010220Y-6222350D02*
X10022840Y-6185190D01*
X10010220Y-11377650D02*
X10002570Y-11339160D01*
X10022840Y-6185190D02*
X10040190Y-6150000D01*
X10022840Y-11414810D02*
X10010220Y-11377650D01*
X10040190Y-6150000D02*
X10061990Y-6117370D01*
X10040190Y-11450000D02*
X10022840Y-11414810D01*
X10061990Y-6117370D02*
X10087870Y-6087870D01*
X10061990Y-11482630D02*
X10040190Y-11450000D01*
X10087870Y-6087870D02*
X10117370Y-6061990D01*
X10087870Y-11512130D02*
X10061990Y-11482630D01*
X10117370Y-6061990D02*
X10150000Y-6040190D01*
X10117370Y-11538010D02*
X10087870Y-11512130D01*
X10150000Y-6040190D02*
X10185190Y-6022840D01*
X10150000Y-11559810D02*
X10117370Y-11538010D01*
X10185190Y-6022840D02*
X10222350Y-6010220D01*
X10185190Y-11577160D02*
X10150000Y-11559810D01*
X10222350Y-6010220D02*
X10260840Y-6002570D01*
X10222350Y-11589780D02*
X10185190Y-11577160D01*
X10260840Y-6002570D02*
X10300000Y-6000000D01*
X10260840Y-11597430D02*
X10222350Y-11589780D01*
X10300000Y-6000000D02*
X16200000Y-6000000D01*
X10300000Y-11600000D02*
X10260840Y-11597430D01*
X15820000Y-6670000D02*
X15820000Y-7280000D01*
X15820000Y-7280000D02*
X16500000Y-7280000D01*
X16200000Y-6000000D02*
X16239160Y-6002570D01*
X16200000Y-11600000D02*
X10300000Y-11600000D01*
X16239160Y-6002570D02*
X16277650Y-6010220D01*
X16239160Y-11597430D02*
X16200000Y-11600000D01*
X16277650Y-6010220D02*
X16314810Y-6022840D01*
X16277650Y-11589780D02*
X16239160Y-11597430D01*
X16314810Y-6022840D02*
X16350000Y-6040190D01*
X16314810Y-11577160D02*
X16277650Y-11589780D01*
X16350000Y-6040190D02*
X16382630Y-6061990D01*
X16350000Y-11559810D02*
X16314810Y-11577160D01*
X16382630Y-6061990D02*
X16412130Y-6087870D01*
X16382630Y-11538010D02*
X16350000Y-11559810D01*
X16412130Y-6087870D02*
X16438010Y-6117370D01*
X16412130Y-11512130D02*
X16382630Y-11538010D01*
X16438010Y-6117370D02*
X16459810Y-6150000D01*
X16438010Y-11482630D02*
X16412130Y-11512130D01*
X16459810Y-6150000D02*
X16477160Y-6185190D01*
X16459810Y-11450000D02*
X16438010Y-11482630D01*
X16477160Y-6185190D02*
X16489780Y-6222350D01*
X16477160Y-11414810D02*
X16459810Y-11450000D01*
X16489780Y-6222350D02*
X16497430Y-6260840D01*
X16489780Y-11377650D02*
X16477160Y-11414810D01*
X16497430Y-6260840D02*
X16500000Y-6300000D01*
X16497430Y-11339160D02*
X16489780Y-11377650D01*
X16500000Y-6300000D02*
X16500000Y-6670000D01*
X16500000Y-6670000D02*
X15820000Y-6670000D01*
X16500000Y-7280000D02*
X16500000Y-11300000D01*
X16500000Y-11300000D02*
X16497430Y-11339160D01*
D11*
D10*
X15160000Y-7660000D02*
X15240000Y-7740000D01*
X15240000Y-7660000D02*
X15160000Y-7740000D01*
X15160000Y-8260000D02*
X15240000Y-8340000D01*
X15240000Y-8260000D02*
X15160000Y-8340000D01*
X15260000Y-10360000D02*
X15340000Y-10440000D01*
X15340000Y-10360000D02*
X15260000Y-10440000D01*
X15610000Y-10360000D02*
X15690000Y-10440000D01*
X15690000Y-10360000D02*
X15610000Y-10440000D01*
X15660000Y-7660000D02*
X15740000Y-7740000D01*
X15740000Y-7660000D02*
X15660000Y-7740000D01*
X15660000Y-8260000D02*
X15740000Y-8340000D01*
X15740000Y-8260000D02*
X15660000Y-8340000D01*
X10887000Y-6223000D02*
G75*
G02*
X10787000Y-6223000I-50000J0D01*
G01*
X10787000Y-6223000D02*
G75*
G02*
X10887000Y-6223000I50000J0D01*
G01*
X10887000Y-6477000D02*
G75*
G02*
X10787000Y-6477000I-50000J0D01*
G01*
X10787000Y-6477000D02*
G75*
G02*
X10887000Y-6477000I50000J0D01*
G01*
X11141000Y-6223000D02*
G75*
G02*
X11041000Y-6223000I-50000J0D01*
G01*
X11041000Y-6223000D02*
G75*
G02*
X11141000Y-6223000I50000J0D01*
G01*
X11141000Y-6477000D02*
G75*
G02*
X11041000Y-6477000I-50000J0D01*
G01*
X11041000Y-6477000D02*
G75*
G02*
X11141000Y-6477000I50000J0D01*
G01*
X11395000Y-6223000D02*
G75*
G02*
X11295000Y-6223000I-50000J0D01*
G01*
X11295000Y-6223000D02*
G75*
G02*
X11395000Y-6223000I50000J0D01*
G01*
X11395000Y-6477000D02*
G75*
G02*
X11295000Y-6477000I-50000J0D01*
G01*
X11295000Y-6477000D02*
G75*
G02*
X11395000Y-6477000I50000J0D01*
G01*
X11649000Y-6223000D02*
G75*
G02*
X11549000Y-6223000I-50000J0D01*
G01*
X11549000Y-6223000D02*
G75*
G02*
X11649000Y-6223000I50000J0D01*
G01*
X11649000Y-6477000D02*
G75*
G02*
X11549000Y-6477000I-50000J0D01*
G01*
X11549000Y-6477000D02*
G75*
G02*
X11649000Y-6477000I50000J0D01*
G01*
X11903000Y-6223000D02*
G75*
G02*
X11803000Y-6223000I-50000J0D01*
G01*
X11803000Y-6223000D02*
G75*
G02*
X11903000Y-6223000I50000J0D01*
G01*
X11903000Y-6477000D02*
G75*
G02*
X11803000Y-6477000I-50000J0D01*
G01*
X11803000Y-6477000D02*
G75*
G02*
X11903000Y-6477000I50000J0D01*
G01*
X12157000Y-6223000D02*
G75*
G02*
X12057000Y-6223000I-50000J0D01*
G01*
X12057000Y-6223000D02*
G75*
G02*
X12157000Y-6223000I50000J0D01*
G01*
X12157000Y-6477000D02*
G75*
G02*
X12057000Y-6477000I-50000J0D01*
G01*
X12057000Y-6477000D02*
G75*
G02*
X12157000Y-6477000I50000J0D01*
G01*
X12411000Y-6223000D02*
G75*
G02*
X12311000Y-6223000I-50000J0D01*
G01*
X12311000Y-6223000D02*
G75*
G02*
X12411000Y-6223000I50000J0D01*
G01*
X12411000Y-6477000D02*
G75*
G02*
X12311000Y-6477000I-50000J0D01*
G01*
X12311000Y-6477000D02*
G75*
G02*
X12411000Y-6477000I50000J0D01*
G01*
X12665000Y-6223000D02*
G75*
G02*
X12565000Y-6223000I-50000J0D01*
G01*
X12565000Y-6223000D02*
G75*
G02*
X12665000Y-6223000I50000J0D01*
G01*
X12665000Y-6477000D02*
G75*
G02*
X12565000Y-6477000I-50000J0D01*
G01*
X12565000Y-6477000D02*
G75*
G02*
X12665000Y-6477000I50000J0D01*
G01*
X12919000Y-6223000D02*
G75*
G02*
X12819000Y-6223000I-50000J0D01*
G01*
X12819000Y-6223000D02*
G75*
G02*
X12919000Y-6223000I50000J0D01*
G01*
X12919000Y-6477000D02*
G75*
G02*
X12819000Y-6477000I-50000J0D01*
G01*
X12819000Y-6477000D02*
G75*
G02*
X12919000Y-6477000I50000J0D01*
G01*
X13173000Y-6223000D02*
G75*
G02*
X13073000Y-6223000I-50000J0D01*
G01*
X13073000Y-6223000D02*
G75*
G02*
X13173000Y-6223000I50000J0D01*
G01*
X13173000Y-6477000D02*
G75*
G02*
X13073000Y-6477000I-50000J0D01*
G01*
X13073000Y-6477000D02*
G75*
G02*
X13173000Y-6477000I50000J0D01*
G01*
X13427000Y-6223000D02*
G75*
G02*
X13327000Y-6223000I-50000J0D01*
G01*
X13327000Y-6223000D02*
G75*
G02*
X13427000Y-6223000I50000J0D01*
G01*
X13427000Y-6477000D02*
G75*
G02*
X13327000Y-6477000I-50000J0D01*
G01*
X13327000Y-6477000D02*
G75*
G02*
X13427000Y-6477000I50000J0D01*
G01*
X13681000Y-6223000D02*
G75*
G02*
X13581000Y-6223000I-50000J0D01*
G01*
X13581000Y-6223000D02*
G75*
G02*
X13681000Y-6223000I50000J0D01*
G01*
X13681000Y-6477000D02*
G75*
G02*
X13581000Y-6477000I-50000J0D01*
G01*
X13581000Y-6477000D02*
G75*
G02*
X13681000Y-6477000I50000J0D01*
G01*
X13935000Y-6223000D02*
G75*
G02*
X13835000Y-6223000I-50000J0D01*
G01*
X13835000Y-6223000D02*
G75*
G02*
X13935000Y-6223000I50000J0D01*
G01*
X13935000Y-6477000D02*
G75*
G02*
X13835000Y-6477000I-50000J0D01*
G01*
X13835000Y-6477000D02*
G75*
G02*
X13935000Y-6477000I50000J0D01*
G01*
X14189000Y-6223000D02*
G75*
G02*
X14089000Y-6223000I-50000J0D01*
G01*
X14089000Y-6223000D02*
G75*
G02*
X14189000Y-6223000I50000J0D01*
G01*
X14189000Y-6477000D02*
G75*
G02*
X14089000Y-6477000I-50000J0D01*
G01*
X14089000Y-6477000D02*
G75*
G02*
X14189000Y-6477000I50000J0D01*
G01*
X14443000Y-6223000D02*
G75*
G02*
X14343000Y-6223000I-50000J0D01*
G01*
X14343000Y-6223000D02*
G75*
G02*
X14443000Y-6223000I50000J0D01*
G01*
X14443000Y-6477000D02*
G75*
G02*
X14343000Y-6477000I-50000J0D01*
G01*
X14343000Y-6477000D02*
G75*
G02*
X14443000Y-6477000I50000J0D01*
G01*
X14697000Y-6223000D02*
G75*
G02*
X14597000Y-6223000I-50000J0D01*
G01*
X14597000Y-6223000D02*
G75*
G02*
X14697000Y-6223000I50000J0D01*
G01*
X14697000Y-6477000D02*
G75*
G02*
X14597000Y-6477000I-50000J0D01*
G01*
X14597000Y-6477000D02*
G75*
G02*
X14697000Y-6477000I50000J0D01*
G01*
X14951000Y-6223000D02*
G75*
G02*
X14851000Y-6223000I-50000J0D01*
G01*
X14851000Y-6223000D02*
G75*
G02*
X14951000Y-6223000I50000J0D01*
G01*
X14951000Y-6477000D02*
G75*
G02*
X14851000Y-6477000I-50000J0D01*
G01*
X14851000Y-6477000D02*
G75*
G02*
X14951000Y-6477000I50000J0D01*
G01*
X15205000Y-6223000D02*
G75*
G02*
X15105000Y-6223000I-50000J0D01*
G01*
X15105000Y-6223000D02*
G75*
G02*
X15205000Y-6223000I50000J0D01*
G01*
X15205000Y-6477000D02*
G75*
G02*
X15105000Y-6477000I-50000J0D01*
G01*
X15105000Y-6477000D02*
G75*
G02*
X15205000Y-6477000I50000J0D01*
G01*
X15459000Y-6223000D02*
G75*
G02*
X15359000Y-6223000I-50000J0D01*
G01*
X15359000Y-6223000D02*
G75*
G02*
X15459000Y-6223000I50000J0D01*
G01*
X15459000Y-6477000D02*
G75*
G02*
X15359000Y-6477000I-50000J0D01*
G01*
X15359000Y-6477000D02*
G75*
G02*
X15459000Y-6477000I50000J0D01*
G01*
X15713000Y-6223000D02*
G75*
G02*
X15613000Y-6223000I-50000J0D01*
G01*
X15613000Y-6223000D02*
G75*
G02*
X15713000Y-6223000I50000J0D01*
G01*
X15713000Y-6477000D02*
G75*
G02*
X15613000Y-6477000I-50000J0D01*
G01*
X15613000Y-6477000D02*
G75*
G02*
X15713000Y-6477000I50000J0D01*
G01*
D11*
X10255777Y-11916484D02*
X10255777Y-11716484D01*
X10255777Y-11716484D02*
X10303396Y-11716484D01*
X10303396Y-11716484D02*
X10331967Y-11726008D01*
X10331967Y-11726008D02*
X10351015Y-11745055D01*
X10351015Y-11745055D02*
X10360539Y-11764103D01*
X10360539Y-11764103D02*
X10370063Y-11802198D01*
X10370063Y-11802198D02*
X10370063Y-11830769D01*
X10370063Y-11830769D02*
X10360539Y-11868865D01*
X10360539Y-11868865D02*
X10351015Y-11887912D01*
X10351015Y-11887912D02*
X10331967Y-11906960D01*
X10331967Y-11906960D02*
X10303396Y-11916484D01*
X10303396Y-11916484D02*
X10255777Y-11916484D01*
X10455777Y-11916484D02*
X10455777Y-11783150D01*
X10455777Y-11821246D02*
X10465301Y-11802198D01*
X10465301Y-11802198D02*
X10474824Y-11792674D01*
X10474824Y-11792674D02*
X10493872Y-11783150D01*
X10493872Y-11783150D02*
X10512920Y-11783150D01*
X10579586Y-11916484D02*
X10579586Y-11783150D01*
X10579586Y-11716484D02*
X10570063Y-11726008D01*
X10570063Y-11726008D02*
X10579586Y-11735531D01*
X10579586Y-11735531D02*
X10589110Y-11726008D01*
X10589110Y-11726008D02*
X10579586Y-11716484D01*
X10579586Y-11716484D02*
X10579586Y-11735531D01*
X10703396Y-11916484D02*
X10684348Y-11906960D01*
X10684348Y-11906960D02*
X10674824Y-11887912D01*
X10674824Y-11887912D02*
X10674824Y-11716484D01*
X10808158Y-11916484D02*
X10789110Y-11906960D01*
X10789110Y-11906960D02*
X10779586Y-11887912D01*
X10779586Y-11887912D02*
X10779586Y-11716484D01*
X11036729Y-11916484D02*
X11036729Y-11716484D01*
X11036729Y-11716484D02*
X11103396Y-11859341D01*
X11103396Y-11859341D02*
X11170063Y-11716484D01*
X11170063Y-11716484D02*
X11170063Y-11916484D01*
X11351015Y-11916484D02*
X11351015Y-11811722D01*
X11351015Y-11811722D02*
X11341491Y-11792674D01*
X11341491Y-11792674D02*
X11322443Y-11783150D01*
X11322443Y-11783150D02*
X11284348Y-11783150D01*
X11284348Y-11783150D02*
X11265301Y-11792674D01*
X11351015Y-11906960D02*
X11331967Y-11916484D01*
X11331967Y-11916484D02*
X11284348Y-11916484D01*
X11284348Y-11916484D02*
X11265301Y-11906960D01*
X11265301Y-11906960D02*
X11255777Y-11887912D01*
X11255777Y-11887912D02*
X11255777Y-11868865D01*
X11255777Y-11868865D02*
X11265301Y-11849817D01*
X11265301Y-11849817D02*
X11284348Y-11840293D01*
X11284348Y-11840293D02*
X11331967Y-11840293D01*
X11331967Y-11840293D02*
X11351015Y-11830769D01*
X11446253Y-11783150D02*
X11446253Y-11983150D01*
X11446253Y-11792674D02*
X11465301Y-11783150D01*
X11465301Y-11783150D02*
X11503396Y-11783150D01*
X11503396Y-11783150D02*
X11522443Y-11792674D01*
X11522443Y-11792674D02*
X11531967Y-11802198D01*
X11531967Y-11802198D02*
X11541491Y-11821246D01*
X11541491Y-11821246D02*
X11541491Y-11878388D01*
X11541491Y-11878388D02*
X11531967Y-11897436D01*
X11531967Y-11897436D02*
X11522443Y-11906960D01*
X11522443Y-11906960D02*
X11503396Y-11916484D01*
X11503396Y-11916484D02*
X11465301Y-11916484D01*
X11465301Y-11916484D02*
X11446253Y-11906960D01*
X11627205Y-11897436D02*
X11636729Y-11906960D01*
X11636729Y-11906960D02*
X11627205Y-11916484D01*
X11627205Y-11916484D02*
X11617682Y-11906960D01*
X11617682Y-11906960D02*
X11627205Y-11897436D01*
X11627205Y-11897436D02*
X11627205Y-11916484D01*
X11627205Y-11792674D02*
X11636729Y-11802198D01*
X11636729Y-11802198D02*
X11627205Y-11811722D01*
X11627205Y-11811722D02*
X11617682Y-11802198D01*
X11617682Y-11802198D02*
X11627205Y-11792674D01*
X11627205Y-11792674D02*
X11627205Y-11811722D01*
D10*
X9915000Y-12205000D02*
X9995000Y-12285000D01*
X9995000Y-12205000D02*
X9915000Y-12285000D01*
D11*
X10293872Y-12136484D02*
X10312920Y-12136484D01*
X10312920Y-12136484D02*
X10331967Y-12146008D01*
X10331967Y-12146008D02*
X10341491Y-12155531D01*
X10341491Y-12155531D02*
X10351015Y-12174579D01*
X10351015Y-12174579D02*
X10360539Y-12212674D01*
X10360539Y-12212674D02*
X10360539Y-12260293D01*
X10360539Y-12260293D02*
X10351015Y-12298388D01*
X10351015Y-12298388D02*
X10341491Y-12317436D01*
X10341491Y-12317436D02*
X10331967Y-12326960D01*
X10331967Y-12326960D02*
X10312920Y-12336484D01*
X10312920Y-12336484D02*
X10293872Y-12336484D01*
X10293872Y-12336484D02*
X10274824Y-12326960D01*
X10274824Y-12326960D02*
X10265301Y-12317436D01*
X10265301Y-12317436D02*
X10255777Y-12298388D01*
X10255777Y-12298388D02*
X10246253Y-12260293D01*
X10246253Y-12260293D02*
X10246253Y-12212674D01*
X10246253Y-12212674D02*
X10255777Y-12174579D01*
X10255777Y-12174579D02*
X10265301Y-12155531D01*
X10265301Y-12155531D02*
X10274824Y-12146008D01*
X10274824Y-12146008D02*
X10293872Y-12136484D01*
X10446253Y-12317436D02*
X10455777Y-12326960D01*
X10455777Y-12326960D02*
X10446253Y-12336484D01*
X10446253Y-12336484D02*
X10436729Y-12326960D01*
X10436729Y-12326960D02*
X10446253Y-12317436D01*
X10446253Y-12317436D02*
X10446253Y-12336484D01*
X10570063Y-12222198D02*
X10551015Y-12212674D01*
X10551015Y-12212674D02*
X10541491Y-12203150D01*
X10541491Y-12203150D02*
X10531967Y-12184103D01*
X10531967Y-12184103D02*
X10531967Y-12174579D01*
X10531967Y-12174579D02*
X10541491Y-12155531D01*
X10541491Y-12155531D02*
X10551015Y-12146008D01*
X10551015Y-12146008D02*
X10570063Y-12136484D01*
X10570063Y-12136484D02*
X10608158Y-12136484D01*
X10608158Y-12136484D02*
X10627205Y-12146008D01*
X10627205Y-12146008D02*
X10636729Y-12155531D01*
X10636729Y-12155531D02*
X10646253Y-12174579D01*
X10646253Y-12174579D02*
X10646253Y-12184103D01*
X10646253Y-12184103D02*
X10636729Y-12203150D01*
X10636729Y-12203150D02*
X10627205Y-12212674D01*
X10627205Y-12212674D02*
X10608158Y-12222198D01*
X10608158Y-12222198D02*
X10570063Y-12222198D01*
X10570063Y-12222198D02*
X10551015Y-12231722D01*
X10551015Y-12231722D02*
X10541491Y-12241246D01*
X10541491Y-12241246D02*
X10531967Y-12260293D01*
X10531967Y-12260293D02*
X10531967Y-12298388D01*
X10531967Y-12298388D02*
X10541491Y-12317436D01*
X10541491Y-12317436D02*
X10551015Y-12326960D01*
X10551015Y-12326960D02*
X10570063Y-12336484D01*
X10570063Y-12336484D02*
X10608158Y-12336484D01*
X10608158Y-12336484D02*
X10627205Y-12326960D01*
X10627205Y-12326960D02*
X10636729Y-12317436D01*
X10636729Y-12317436D02*
X10646253Y-12298388D01*
X10646253Y-12298388D02*
X10646253Y-12260293D01*
X10646253Y-12260293D02*
X10636729Y-12241246D01*
X10636729Y-12241246D02*
X10627205Y-12231722D01*
X10627205Y-12231722D02*
X10608158Y-12222198D01*
X10770063Y-12136484D02*
X10789110Y-12136484D01*
X10789110Y-12136484D02*
X10808158Y-12146008D01*
X10808158Y-12146008D02*
X10817682Y-12155531D01*
X10817682Y-12155531D02*
X10827205Y-12174579D01*
X10827205Y-12174579D02*
X10836729Y-12212674D01*
X10836729Y-12212674D02*
X10836729Y-12260293D01*
X10836729Y-12260293D02*
X10827205Y-12298388D01*
X10827205Y-12298388D02*
X10817682Y-12317436D01*
X10817682Y-12317436D02*
X10808158Y-12326960D01*
X10808158Y-12326960D02*
X10789110Y-12336484D01*
X10789110Y-12336484D02*
X10770063Y-12336484D01*
X10770063Y-12336484D02*
X10751015Y-12326960D01*
X10751015Y-12326960D02*
X10741491Y-12317436D01*
X10741491Y-12317436D02*
X10731967Y-12298388D01*
X10731967Y-12298388D02*
X10722444Y-12260293D01*
X10722444Y-12260293D02*
X10722444Y-12212674D01*
X10722444Y-12212674D02*
X10731967Y-12174579D01*
X10731967Y-12174579D02*
X10741491Y-12155531D01*
X10741491Y-12155531D02*
X10751015Y-12146008D01*
X10751015Y-12146008D02*
X10770063Y-12136484D01*
X10960539Y-12136484D02*
X10979586Y-12136484D01*
X10979586Y-12136484D02*
X10998634Y-12146008D01*
X10998634Y-12146008D02*
X11008158Y-12155531D01*
X11008158Y-12155531D02*
X11017682Y-12174579D01*
X11017682Y-12174579D02*
X11027205Y-12212674D01*
X11027205Y-12212674D02*
X11027205Y-12260293D01*
X11027205Y-12260293D02*
X11017682Y-12298388D01*
X11017682Y-12298388D02*
X11008158Y-12317436D01*
X11008158Y-12317436D02*
X10998634Y-12326960D01*
X10998634Y-12326960D02*
X10979586Y-12336484D01*
X10979586Y-12336484D02*
X10960539Y-12336484D01*
X10960539Y-12336484D02*
X10941491Y-12326960D01*
X10941491Y-12326960D02*
X10931967Y-12317436D01*
X10931967Y-12317436D02*
X10922444Y-12298388D01*
X10922444Y-12298388D02*
X10912920Y-12260293D01*
X10912920Y-12260293D02*
X10912920Y-12212674D01*
X10912920Y-12212674D02*
X10922444Y-12174579D01*
X10922444Y-12174579D02*
X10931967Y-12155531D01*
X10931967Y-12155531D02*
X10941491Y-12146008D01*
X10941491Y-12146008D02*
X10960539Y-12136484D01*
X11112920Y-12336484D02*
X11112920Y-12203150D01*
X11112920Y-12222198D02*
X11122444Y-12212674D01*
X11122444Y-12212674D02*
X11141491Y-12203150D01*
X11141491Y-12203150D02*
X11170063Y-12203150D01*
X11170063Y-12203150D02*
X11189110Y-12212674D01*
X11189110Y-12212674D02*
X11198634Y-12231722D01*
X11198634Y-12231722D02*
X11198634Y-12336484D01*
X11198634Y-12231722D02*
X11208158Y-12212674D01*
X11208158Y-12212674D02*
X11227205Y-12203150D01*
X11227205Y-12203150D02*
X11255777Y-12203150D01*
X11255777Y-12203150D02*
X11274824Y-12212674D01*
X11274824Y-12212674D02*
X11284348Y-12231722D01*
X11284348Y-12231722D02*
X11284348Y-12336484D01*
X11379586Y-12336484D02*
X11379586Y-12203150D01*
X11379586Y-12222198D02*
X11389110Y-12212674D01*
X11389110Y-12212674D02*
X11408158Y-12203150D01*
X11408158Y-12203150D02*
X11436729Y-12203150D01*
X11436729Y-12203150D02*
X11455777Y-12212674D01*
X11455777Y-12212674D02*
X11465301Y-12231722D01*
X11465301Y-12231722D02*
X11465301Y-12336484D01*
X11465301Y-12231722D02*
X11474824Y-12212674D01*
X11474824Y-12212674D02*
X11493872Y-12203150D01*
X11493872Y-12203150D02*
X11522443Y-12203150D01*
X11522443Y-12203150D02*
X11541491Y-12212674D01*
X11541491Y-12212674D02*
X11551015Y-12231722D01*
X11551015Y-12231722D02*
X11551015Y-12336484D01*
X11941491Y-12126960D02*
X11770063Y-12384103D01*
X12198634Y-12136484D02*
X12217682Y-12136484D01*
X12217682Y-12136484D02*
X12236729Y-12146008D01*
X12236729Y-12146008D02*
X12246253Y-12155531D01*
X12246253Y-12155531D02*
X12255777Y-12174579D01*
X12255777Y-12174579D02*
X12265301Y-12212674D01*
X12265301Y-12212674D02*
X12265301Y-12260293D01*
X12265301Y-12260293D02*
X12255777Y-12298388D01*
X12255777Y-12298388D02*
X12246253Y-12317436D01*
X12246253Y-12317436D02*
X12236729Y-12326960D01*
X12236729Y-12326960D02*
X12217682Y-12336484D01*
X12217682Y-12336484D02*
X12198634Y-12336484D01*
X12198634Y-12336484D02*
X12179586Y-12326960D01*
X12179586Y-12326960D02*
X12170063Y-12317436D01*
X12170063Y-12317436D02*
X12160539Y-12298388D01*
X12160539Y-12298388D02*
X12151015Y-12260293D01*
X12151015Y-12260293D02*
X12151015Y-12212674D01*
X12151015Y-12212674D02*
X12160539Y-12174579D01*
X12160539Y-12174579D02*
X12170063Y-12155531D01*
X12170063Y-12155531D02*
X12179586Y-12146008D01*
X12179586Y-12146008D02*
X12198634Y-12136484D01*
X12351015Y-12317436D02*
X12360539Y-12326960D01*
X12360539Y-12326960D02*
X12351015Y-12336484D01*
X12351015Y-12336484D02*
X12341491Y-12326960D01*
X12341491Y-12326960D02*
X12351015Y-12317436D01*
X12351015Y-12317436D02*
X12351015Y-12336484D01*
X12484348Y-12136484D02*
X12503396Y-12136484D01*
X12503396Y-12136484D02*
X12522444Y-12146008D01*
X12522444Y-12146008D02*
X12531967Y-12155531D01*
X12531967Y-12155531D02*
X12541491Y-12174579D01*
X12541491Y-12174579D02*
X12551015Y-12212674D01*
X12551015Y-12212674D02*
X12551015Y-12260293D01*
X12551015Y-12260293D02*
X12541491Y-12298388D01*
X12541491Y-12298388D02*
X12531967Y-12317436D01*
X12531967Y-12317436D02*
X12522444Y-12326960D01*
X12522444Y-12326960D02*
X12503396Y-12336484D01*
X12503396Y-12336484D02*
X12484348Y-12336484D01*
X12484348Y-12336484D02*
X12465301Y-12326960D01*
X12465301Y-12326960D02*
X12455777Y-12317436D01*
X12455777Y-12317436D02*
X12446253Y-12298388D01*
X12446253Y-12298388D02*
X12436729Y-12260293D01*
X12436729Y-12260293D02*
X12436729Y-12212674D01*
X12436729Y-12212674D02*
X12446253Y-12174579D01*
X12446253Y-12174579D02*
X12455777Y-12155531D01*
X12455777Y-12155531D02*
X12465301Y-12146008D01*
X12465301Y-12146008D02*
X12484348Y-12136484D01*
X12617682Y-12136484D02*
X12741491Y-12136484D01*
X12741491Y-12136484D02*
X12674825Y-12212674D01*
X12674825Y-12212674D02*
X12703396Y-12212674D01*
X12703396Y-12212674D02*
X12722444Y-12222198D01*
X12722444Y-12222198D02*
X12731967Y-12231722D01*
X12731967Y-12231722D02*
X12741491Y-12250769D01*
X12741491Y-12250769D02*
X12741491Y-12298388D01*
X12741491Y-12298388D02*
X12731967Y-12317436D01*
X12731967Y-12317436D02*
X12722444Y-12326960D01*
X12722444Y-12326960D02*
X12703396Y-12336484D01*
X12703396Y-12336484D02*
X12646253Y-12336484D01*
X12646253Y-12336484D02*
X12627206Y-12326960D01*
X12627206Y-12326960D02*
X12617682Y-12317436D01*
X12931967Y-12336484D02*
X12817682Y-12336484D01*
X12874825Y-12336484D02*
X12874825Y-12136484D01*
X12874825Y-12136484D02*
X12855777Y-12165055D01*
X12855777Y-12165055D02*
X12836729Y-12184103D01*
X12836729Y-12184103D02*
X12817682Y-12193627D01*
X13112920Y-12136484D02*
X13017682Y-12136484D01*
X13017682Y-12136484D02*
X13008158Y-12231722D01*
X13008158Y-12231722D02*
X13017682Y-12222198D01*
X13017682Y-12222198D02*
X13036729Y-12212674D01*
X13036729Y-12212674D02*
X13084348Y-12212674D01*
X13084348Y-12212674D02*
X13103396Y-12222198D01*
X13103396Y-12222198D02*
X13112920Y-12231722D01*
X13112920Y-12231722D02*
X13122444Y-12250769D01*
X13122444Y-12250769D02*
X13122444Y-12298388D01*
X13122444Y-12298388D02*
X13112920Y-12317436D01*
X13112920Y-12317436D02*
X13103396Y-12326960D01*
X13103396Y-12326960D02*
X13084348Y-12336484D01*
X13084348Y-12336484D02*
X13036729Y-12336484D01*
X13036729Y-12336484D02*
X13017682Y-12326960D01*
X13017682Y-12326960D02*
X13008158Y-12317436D01*
X13198634Y-12136484D02*
X13198634Y-12174579D01*
X13274825Y-12136484D02*
X13274825Y-12174579D01*
X13570063Y-12412674D02*
X13560539Y-12403150D01*
X13560539Y-12403150D02*
X13541491Y-12374579D01*
X13541491Y-12374579D02*
X13531968Y-12355531D01*
X13531968Y-12355531D02*
X13522444Y-12326960D01*
X13522444Y-12326960D02*
X13512920Y-12279341D01*
X13512920Y-12279341D02*
X13512920Y-12241246D01*
X13512920Y-12241246D02*
X13522444Y-12193627D01*
X13522444Y-12193627D02*
X13531968Y-12165055D01*
X13531968Y-12165055D02*
X13541491Y-12146008D01*
X13541491Y-12146008D02*
X13560539Y-12117436D01*
X13560539Y-12117436D02*
X13570063Y-12107912D01*
X13731968Y-12136484D02*
X13693872Y-12136484D01*
X13693872Y-12136484D02*
X13674825Y-12146008D01*
X13674825Y-12146008D02*
X13665301Y-12155531D01*
X13665301Y-12155531D02*
X13646253Y-12184103D01*
X13646253Y-12184103D02*
X13636729Y-12222198D01*
X13636729Y-12222198D02*
X13636729Y-12298388D01*
X13636729Y-12298388D02*
X13646253Y-12317436D01*
X13646253Y-12317436D02*
X13655777Y-12326960D01*
X13655777Y-12326960D02*
X13674825Y-12336484D01*
X13674825Y-12336484D02*
X13712920Y-12336484D01*
X13712920Y-12336484D02*
X13731968Y-12326960D01*
X13731968Y-12326960D02*
X13741491Y-12317436D01*
X13741491Y-12317436D02*
X13751015Y-12298388D01*
X13751015Y-12298388D02*
X13751015Y-12250769D01*
X13751015Y-12250769D02*
X13741491Y-12231722D01*
X13741491Y-12231722D02*
X13731968Y-12222198D01*
X13731968Y-12222198D02*
X13712920Y-12212674D01*
X13712920Y-12212674D02*
X13674825Y-12212674D01*
X13674825Y-12212674D02*
X13655777Y-12222198D01*
X13655777Y-12222198D02*
X13646253Y-12231722D01*
X13646253Y-12231722D02*
X13636729Y-12250769D01*
X13989110Y-12336484D02*
X13989110Y-12136484D01*
X14074825Y-12336484D02*
X14074825Y-12231722D01*
X14074825Y-12231722D02*
X14065301Y-12212674D01*
X14065301Y-12212674D02*
X14046253Y-12203150D01*
X14046253Y-12203150D02*
X14017682Y-12203150D01*
X14017682Y-12203150D02*
X13998634Y-12212674D01*
X13998634Y-12212674D02*
X13989110Y-12222198D01*
X14198634Y-12336484D02*
X14179587Y-12326960D01*
X14179587Y-12326960D02*
X14170063Y-12317436D01*
X14170063Y-12317436D02*
X14160539Y-12298388D01*
X14160539Y-12298388D02*
X14160539Y-12241246D01*
X14160539Y-12241246D02*
X14170063Y-12222198D01*
X14170063Y-12222198D02*
X14179587Y-12212674D01*
X14179587Y-12212674D02*
X14198634Y-12203150D01*
X14198634Y-12203150D02*
X14227206Y-12203150D01*
X14227206Y-12203150D02*
X14246253Y-12212674D01*
X14246253Y-12212674D02*
X14255777Y-12222198D01*
X14255777Y-12222198D02*
X14265301Y-12241246D01*
X14265301Y-12241246D02*
X14265301Y-12298388D01*
X14265301Y-12298388D02*
X14255777Y-12317436D01*
X14255777Y-12317436D02*
X14246253Y-12326960D01*
X14246253Y-12326960D02*
X14227206Y-12336484D01*
X14227206Y-12336484D02*
X14198634Y-12336484D01*
X14379587Y-12336484D02*
X14360539Y-12326960D01*
X14360539Y-12326960D02*
X14351015Y-12307912D01*
X14351015Y-12307912D02*
X14351015Y-12136484D01*
X14531968Y-12326960D02*
X14512920Y-12336484D01*
X14512920Y-12336484D02*
X14474825Y-12336484D01*
X14474825Y-12336484D02*
X14455777Y-12326960D01*
X14455777Y-12326960D02*
X14446253Y-12307912D01*
X14446253Y-12307912D02*
X14446253Y-12231722D01*
X14446253Y-12231722D02*
X14455777Y-12212674D01*
X14455777Y-12212674D02*
X14474825Y-12203150D01*
X14474825Y-12203150D02*
X14512920Y-12203150D01*
X14512920Y-12203150D02*
X14531968Y-12212674D01*
X14531968Y-12212674D02*
X14541491Y-12231722D01*
X14541491Y-12231722D02*
X14541491Y-12250769D01*
X14541491Y-12250769D02*
X14446253Y-12269817D01*
X14617682Y-12326960D02*
X14636730Y-12336484D01*
X14636730Y-12336484D02*
X14674825Y-12336484D01*
X14674825Y-12336484D02*
X14693872Y-12326960D01*
X14693872Y-12326960D02*
X14703396Y-12307912D01*
X14703396Y-12307912D02*
X14703396Y-12298388D01*
X14703396Y-12298388D02*
X14693872Y-12279341D01*
X14693872Y-12279341D02*
X14674825Y-12269817D01*
X14674825Y-12269817D02*
X14646253Y-12269817D01*
X14646253Y-12269817D02*
X14627206Y-12260293D01*
X14627206Y-12260293D02*
X14617682Y-12241246D01*
X14617682Y-12241246D02*
X14617682Y-12231722D01*
X14617682Y-12231722D02*
X14627206Y-12212674D01*
X14627206Y-12212674D02*
X14646253Y-12203150D01*
X14646253Y-12203150D02*
X14674825Y-12203150D01*
X14674825Y-12203150D02*
X14693872Y-12212674D01*
X14770063Y-12412674D02*
X14779587Y-12403150D01*
X14779587Y-12403150D02*
X14798634Y-12374579D01*
X14798634Y-12374579D02*
X14808158Y-12355531D01*
X14808158Y-12355531D02*
X14817682Y-12326960D01*
X14817682Y-12326960D02*
X14827206Y-12279341D01*
X14827206Y-12279341D02*
X14827206Y-12241246D01*
X14827206Y-12241246D02*
X14817682Y-12193627D01*
X14817682Y-12193627D02*
X14808158Y-12165055D01*
X14808158Y-12165055D02*
X14798634Y-12146008D01*
X14798634Y-12146008D02*
X14779587Y-12117436D01*
X14779587Y-12117436D02*
X14770063Y-12107912D01*
D10*
X9995000Y-12509000D02*
G75*
G02*
X9895000Y-12509000I-50000J0D01*
G01*
X9895000Y-12509000D02*
G75*
G02*
X9995000Y-12509000I50000J0D01*
G01*
D11*
X10360539Y-12600484D02*
X10246253Y-12600484D01*
X10303396Y-12600484D02*
X10303396Y-12400484D01*
X10303396Y-12400484D02*
X10284348Y-12429055D01*
X10284348Y-12429055D02*
X10265301Y-12448103D01*
X10265301Y-12448103D02*
X10246253Y-12457627D01*
X10446253Y-12581436D02*
X10455777Y-12590960D01*
X10455777Y-12590960D02*
X10446253Y-12600484D01*
X10446253Y-12600484D02*
X10436729Y-12590960D01*
X10436729Y-12590960D02*
X10446253Y-12581436D01*
X10446253Y-12581436D02*
X10446253Y-12600484D01*
X10579586Y-12400484D02*
X10598634Y-12400484D01*
X10598634Y-12400484D02*
X10617682Y-12410008D01*
X10617682Y-12410008D02*
X10627205Y-12419531D01*
X10627205Y-12419531D02*
X10636729Y-12438579D01*
X10636729Y-12438579D02*
X10646253Y-12476674D01*
X10646253Y-12476674D02*
X10646253Y-12524293D01*
X10646253Y-12524293D02*
X10636729Y-12562388D01*
X10636729Y-12562388D02*
X10627205Y-12581436D01*
X10627205Y-12581436D02*
X10617682Y-12590960D01*
X10617682Y-12590960D02*
X10598634Y-12600484D01*
X10598634Y-12600484D02*
X10579586Y-12600484D01*
X10579586Y-12600484D02*
X10560539Y-12590960D01*
X10560539Y-12590960D02*
X10551015Y-12581436D01*
X10551015Y-12581436D02*
X10541491Y-12562388D01*
X10541491Y-12562388D02*
X10531967Y-12524293D01*
X10531967Y-12524293D02*
X10531967Y-12476674D01*
X10531967Y-12476674D02*
X10541491Y-12438579D01*
X10541491Y-12438579D02*
X10551015Y-12419531D01*
X10551015Y-12419531D02*
X10560539Y-12410008D01*
X10560539Y-12410008D02*
X10579586Y-12400484D01*
X10770063Y-12400484D02*
X10789110Y-12400484D01*
X10789110Y-12400484D02*
X10808158Y-12410008D01*
X10808158Y-12410008D02*
X10817682Y-12419531D01*
X10817682Y-12419531D02*
X10827205Y-12438579D01*
X10827205Y-12438579D02*
X10836729Y-12476674D01*
X10836729Y-12476674D02*
X10836729Y-12524293D01*
X10836729Y-12524293D02*
X10827205Y-12562388D01*
X10827205Y-12562388D02*
X10817682Y-12581436D01*
X10817682Y-12581436D02*
X10808158Y-12590960D01*
X10808158Y-12590960D02*
X10789110Y-12600484D01*
X10789110Y-12600484D02*
X10770063Y-12600484D01*
X10770063Y-12600484D02*
X10751015Y-12590960D01*
X10751015Y-12590960D02*
X10741491Y-12581436D01*
X10741491Y-12581436D02*
X10731967Y-12562388D01*
X10731967Y-12562388D02*
X10722444Y-12524293D01*
X10722444Y-12524293D02*
X10722444Y-12476674D01*
X10722444Y-12476674D02*
X10731967Y-12438579D01*
X10731967Y-12438579D02*
X10741491Y-12419531D01*
X10741491Y-12419531D02*
X10751015Y-12410008D01*
X10751015Y-12410008D02*
X10770063Y-12400484D01*
X10960539Y-12400484D02*
X10979586Y-12400484D01*
X10979586Y-12400484D02*
X10998634Y-12410008D01*
X10998634Y-12410008D02*
X11008158Y-12419531D01*
X11008158Y-12419531D02*
X11017682Y-12438579D01*
X11017682Y-12438579D02*
X11027205Y-12476674D01*
X11027205Y-12476674D02*
X11027205Y-12524293D01*
X11027205Y-12524293D02*
X11017682Y-12562388D01*
X11017682Y-12562388D02*
X11008158Y-12581436D01*
X11008158Y-12581436D02*
X10998634Y-12590960D01*
X10998634Y-12590960D02*
X10979586Y-12600484D01*
X10979586Y-12600484D02*
X10960539Y-12600484D01*
X10960539Y-12600484D02*
X10941491Y-12590960D01*
X10941491Y-12590960D02*
X10931967Y-12581436D01*
X10931967Y-12581436D02*
X10922444Y-12562388D01*
X10922444Y-12562388D02*
X10912920Y-12524293D01*
X10912920Y-12524293D02*
X10912920Y-12476674D01*
X10912920Y-12476674D02*
X10922444Y-12438579D01*
X10922444Y-12438579D02*
X10931967Y-12419531D01*
X10931967Y-12419531D02*
X10941491Y-12410008D01*
X10941491Y-12410008D02*
X10960539Y-12400484D01*
X11112920Y-12600484D02*
X11112920Y-12467150D01*
X11112920Y-12486198D02*
X11122444Y-12476674D01*
X11122444Y-12476674D02*
X11141491Y-12467150D01*
X11141491Y-12467150D02*
X11170063Y-12467150D01*
X11170063Y-12467150D02*
X11189110Y-12476674D01*
X11189110Y-12476674D02*
X11198634Y-12495722D01*
X11198634Y-12495722D02*
X11198634Y-12600484D01*
X11198634Y-12495722D02*
X11208158Y-12476674D01*
X11208158Y-12476674D02*
X11227205Y-12467150D01*
X11227205Y-12467150D02*
X11255777Y-12467150D01*
X11255777Y-12467150D02*
X11274824Y-12476674D01*
X11274824Y-12476674D02*
X11284348Y-12495722D01*
X11284348Y-12495722D02*
X11284348Y-12600484D01*
X11379586Y-12600484D02*
X11379586Y-12467150D01*
X11379586Y-12486198D02*
X11389110Y-12476674D01*
X11389110Y-12476674D02*
X11408158Y-12467150D01*
X11408158Y-12467150D02*
X11436729Y-12467150D01*
X11436729Y-12467150D02*
X11455777Y-12476674D01*
X11455777Y-12476674D02*
X11465301Y-12495722D01*
X11465301Y-12495722D02*
X11465301Y-12600484D01*
X11465301Y-12495722D02*
X11474824Y-12476674D01*
X11474824Y-12476674D02*
X11493872Y-12467150D01*
X11493872Y-12467150D02*
X11522443Y-12467150D01*
X11522443Y-12467150D02*
X11541491Y-12476674D01*
X11541491Y-12476674D02*
X11551015Y-12495722D01*
X11551015Y-12495722D02*
X11551015Y-12600484D01*
X11941491Y-12390960D02*
X11770063Y-12648103D01*
X12198634Y-12400484D02*
X12217682Y-12400484D01*
X12217682Y-12400484D02*
X12236729Y-12410008D01*
X12236729Y-12410008D02*
X12246253Y-12419531D01*
X12246253Y-12419531D02*
X12255777Y-12438579D01*
X12255777Y-12438579D02*
X12265301Y-12476674D01*
X12265301Y-12476674D02*
X12265301Y-12524293D01*
X12265301Y-12524293D02*
X12255777Y-12562388D01*
X12255777Y-12562388D02*
X12246253Y-12581436D01*
X12246253Y-12581436D02*
X12236729Y-12590960D01*
X12236729Y-12590960D02*
X12217682Y-12600484D01*
X12217682Y-12600484D02*
X12198634Y-12600484D01*
X12198634Y-12600484D02*
X12179586Y-12590960D01*
X12179586Y-12590960D02*
X12170063Y-12581436D01*
X12170063Y-12581436D02*
X12160539Y-12562388D01*
X12160539Y-12562388D02*
X12151015Y-12524293D01*
X12151015Y-12524293D02*
X12151015Y-12476674D01*
X12151015Y-12476674D02*
X12160539Y-12438579D01*
X12160539Y-12438579D02*
X12170063Y-12419531D01*
X12170063Y-12419531D02*
X12179586Y-12410008D01*
X12179586Y-12410008D02*
X12198634Y-12400484D01*
X12351015Y-12581436D02*
X12360539Y-12590960D01*
X12360539Y-12590960D02*
X12351015Y-12600484D01*
X12351015Y-12600484D02*
X12341491Y-12590960D01*
X12341491Y-12590960D02*
X12351015Y-12581436D01*
X12351015Y-12581436D02*
X12351015Y-12600484D01*
X12484348Y-12400484D02*
X12503396Y-12400484D01*
X12503396Y-12400484D02*
X12522444Y-12410008D01*
X12522444Y-12410008D02*
X12531967Y-12419531D01*
X12531967Y-12419531D02*
X12541491Y-12438579D01*
X12541491Y-12438579D02*
X12551015Y-12476674D01*
X12551015Y-12476674D02*
X12551015Y-12524293D01*
X12551015Y-12524293D02*
X12541491Y-12562388D01*
X12541491Y-12562388D02*
X12531967Y-12581436D01*
X12531967Y-12581436D02*
X12522444Y-12590960D01*
X12522444Y-12590960D02*
X12503396Y-12600484D01*
X12503396Y-12600484D02*
X12484348Y-12600484D01*
X12484348Y-12600484D02*
X12465301Y-12590960D01*
X12465301Y-12590960D02*
X12455777Y-12581436D01*
X12455777Y-12581436D02*
X12446253Y-12562388D01*
X12446253Y-12562388D02*
X12436729Y-12524293D01*
X12436729Y-12524293D02*
X12436729Y-12476674D01*
X12436729Y-12476674D02*
X12446253Y-12438579D01*
X12446253Y-12438579D02*
X12455777Y-12419531D01*
X12455777Y-12419531D02*
X12465301Y-12410008D01*
X12465301Y-12410008D02*
X12484348Y-12400484D01*
X12617682Y-12400484D02*
X12741491Y-12400484D01*
X12741491Y-12400484D02*
X12674825Y-12476674D01*
X12674825Y-12476674D02*
X12703396Y-12476674D01*
X12703396Y-12476674D02*
X12722444Y-12486198D01*
X12722444Y-12486198D02*
X12731967Y-12495722D01*
X12731967Y-12495722D02*
X12741491Y-12514769D01*
X12741491Y-12514769D02*
X12741491Y-12562388D01*
X12741491Y-12562388D02*
X12731967Y-12581436D01*
X12731967Y-12581436D02*
X12722444Y-12590960D01*
X12722444Y-12590960D02*
X12703396Y-12600484D01*
X12703396Y-12600484D02*
X12646253Y-12600484D01*
X12646253Y-12600484D02*
X12627206Y-12590960D01*
X12627206Y-12590960D02*
X12617682Y-12581436D01*
X12836729Y-12600484D02*
X12874825Y-12600484D01*
X12874825Y-12600484D02*
X12893872Y-12590960D01*
X12893872Y-12590960D02*
X12903396Y-12581436D01*
X12903396Y-12581436D02*
X12922444Y-12552865D01*
X12922444Y-12552865D02*
X12931967Y-12514769D01*
X12931967Y-12514769D02*
X12931967Y-12438579D01*
X12931967Y-12438579D02*
X12922444Y-12419531D01*
X12922444Y-12419531D02*
X12912920Y-12410008D01*
X12912920Y-12410008D02*
X12893872Y-12400484D01*
X12893872Y-12400484D02*
X12855777Y-12400484D01*
X12855777Y-12400484D02*
X12836729Y-12410008D01*
X12836729Y-12410008D02*
X12827206Y-12419531D01*
X12827206Y-12419531D02*
X12817682Y-12438579D01*
X12817682Y-12438579D02*
X12817682Y-12486198D01*
X12817682Y-12486198D02*
X12827206Y-12505246D01*
X12827206Y-12505246D02*
X12836729Y-12514769D01*
X12836729Y-12514769D02*
X12855777Y-12524293D01*
X12855777Y-12524293D02*
X12893872Y-12524293D01*
X12893872Y-12524293D02*
X12912920Y-12514769D01*
X12912920Y-12514769D02*
X12922444Y-12505246D01*
X12922444Y-12505246D02*
X12931967Y-12486198D01*
X13103396Y-12467150D02*
X13103396Y-12600484D01*
X13055777Y-12390960D02*
X13008158Y-12533817D01*
X13008158Y-12533817D02*
X13131967Y-12533817D01*
X13198634Y-12400484D02*
X13198634Y-12438579D01*
X13274825Y-12400484D02*
X13274825Y-12438579D01*
X13570063Y-12676674D02*
X13560539Y-12667150D01*
X13560539Y-12667150D02*
X13541491Y-12638579D01*
X13541491Y-12638579D02*
X13531968Y-12619531D01*
X13531968Y-12619531D02*
X13522444Y-12590960D01*
X13522444Y-12590960D02*
X13512920Y-12543341D01*
X13512920Y-12543341D02*
X13512920Y-12505246D01*
X13512920Y-12505246D02*
X13522444Y-12457627D01*
X13522444Y-12457627D02*
X13531968Y-12429055D01*
X13531968Y-12429055D02*
X13541491Y-12410008D01*
X13541491Y-12410008D02*
X13560539Y-12381436D01*
X13560539Y-12381436D02*
X13570063Y-12371912D01*
X13731968Y-12467150D02*
X13731968Y-12600484D01*
X13684348Y-12390960D02*
X13636729Y-12533817D01*
X13636729Y-12533817D02*
X13760539Y-12533817D01*
X13874825Y-12400484D02*
X13893872Y-12400484D01*
X13893872Y-12400484D02*
X13912920Y-12410008D01*
X13912920Y-12410008D02*
X13922444Y-12419531D01*
X13922444Y-12419531D02*
X13931968Y-12438579D01*
X13931968Y-12438579D02*
X13941491Y-12476674D01*
X13941491Y-12476674D02*
X13941491Y-12524293D01*
X13941491Y-12524293D02*
X13931968Y-12562388D01*
X13931968Y-12562388D02*
X13922444Y-12581436D01*
X13922444Y-12581436D02*
X13912920Y-12590960D01*
X13912920Y-12590960D02*
X13893872Y-12600484D01*
X13893872Y-12600484D02*
X13874825Y-12600484D01*
X13874825Y-12600484D02*
X13855777Y-12590960D01*
X13855777Y-12590960D02*
X13846253Y-12581436D01*
X13846253Y-12581436D02*
X13836729Y-12562388D01*
X13836729Y-12562388D02*
X13827206Y-12524293D01*
X13827206Y-12524293D02*
X13827206Y-12476674D01*
X13827206Y-12476674D02*
X13836729Y-12438579D01*
X13836729Y-12438579D02*
X13846253Y-12419531D01*
X13846253Y-12419531D02*
X13855777Y-12410008D01*
X13855777Y-12410008D02*
X13874825Y-12400484D01*
X14179587Y-12600484D02*
X14179587Y-12400484D01*
X14265301Y-12600484D02*
X14265301Y-12495722D01*
X14265301Y-12495722D02*
X14255777Y-12476674D01*
X14255777Y-12476674D02*
X14236730Y-12467150D01*
X14236730Y-12467150D02*
X14208158Y-12467150D01*
X14208158Y-12467150D02*
X14189110Y-12476674D01*
X14189110Y-12476674D02*
X14179587Y-12486198D01*
X14389110Y-12600484D02*
X14370063Y-12590960D01*
X14370063Y-12590960D02*
X14360539Y-12581436D01*
X14360539Y-12581436D02*
X14351015Y-12562388D01*
X14351015Y-12562388D02*
X14351015Y-12505246D01*
X14351015Y-12505246D02*
X14360539Y-12486198D01*
X14360539Y-12486198D02*
X14370063Y-12476674D01*
X14370063Y-12476674D02*
X14389110Y-12467150D01*
X14389110Y-12467150D02*
X14417682Y-12467150D01*
X14417682Y-12467150D02*
X14436730Y-12476674D01*
X14436730Y-12476674D02*
X14446253Y-12486198D01*
X14446253Y-12486198D02*
X14455777Y-12505246D01*
X14455777Y-12505246D02*
X14455777Y-12562388D01*
X14455777Y-12562388D02*
X14446253Y-12581436D01*
X14446253Y-12581436D02*
X14436730Y-12590960D01*
X14436730Y-12590960D02*
X14417682Y-12600484D01*
X14417682Y-12600484D02*
X14389110Y-12600484D01*
X14570063Y-12600484D02*
X14551015Y-12590960D01*
X14551015Y-12590960D02*
X14541491Y-12571912D01*
X14541491Y-12571912D02*
X14541491Y-12400484D01*
X14722444Y-12590960D02*
X14703396Y-12600484D01*
X14703396Y-12600484D02*
X14665301Y-12600484D01*
X14665301Y-12600484D02*
X14646253Y-12590960D01*
X14646253Y-12590960D02*
X14636730Y-12571912D01*
X14636730Y-12571912D02*
X14636730Y-12495722D01*
X14636730Y-12495722D02*
X14646253Y-12476674D01*
X14646253Y-12476674D02*
X14665301Y-12467150D01*
X14665301Y-12467150D02*
X14703396Y-12467150D01*
X14703396Y-12467150D02*
X14722444Y-12476674D01*
X14722444Y-12476674D02*
X14731968Y-12495722D01*
X14731968Y-12495722D02*
X14731968Y-12514769D01*
X14731968Y-12514769D02*
X14636730Y-12533817D01*
X14808158Y-12590960D02*
X14827206Y-12600484D01*
X14827206Y-12600484D02*
X14865301Y-12600484D01*
X14865301Y-12600484D02*
X14884349Y-12590960D01*
X14884349Y-12590960D02*
X14893872Y-12571912D01*
X14893872Y-12571912D02*
X14893872Y-12562388D01*
X14893872Y-12562388D02*
X14884349Y-12543341D01*
X14884349Y-12543341D02*
X14865301Y-12533817D01*
X14865301Y-12533817D02*
X14836730Y-12533817D01*
X14836730Y-12533817D02*
X14817682Y-12524293D01*
X14817682Y-12524293D02*
X14808158Y-12505246D01*
X14808158Y-12505246D02*
X14808158Y-12495722D01*
X14808158Y-12495722D02*
X14817682Y-12476674D01*
X14817682Y-12476674D02*
X14836730Y-12467150D01*
X14836730Y-12467150D02*
X14865301Y-12467150D01*
X14865301Y-12467150D02*
X14884349Y-12476674D01*
X14960539Y-12676674D02*
X14970063Y-12667150D01*
X14970063Y-12667150D02*
X14989111Y-12638579D01*
X14989111Y-12638579D02*
X14998634Y-12619531D01*
X14998634Y-12619531D02*
X15008158Y-12590960D01*
X15008158Y-12590960D02*
X15017682Y-12543341D01*
X15017682Y-12543341D02*
X15017682Y-12505246D01*
X15017682Y-12505246D02*
X15008158Y-12457627D01*
X15008158Y-12457627D02*
X14998634Y-12429055D01*
X14998634Y-12429055D02*
X14989111Y-12410008D01*
X14989111Y-12410008D02*
X14970063Y-12381436D01*
X14970063Y-12381436D02*
X14960539Y-12371912D01*
M02*
